<?xml version="1.0" encoding="utf-8"?>
<!-- Generator: Adobe Illustrator 22.0.1, SVG Export Plug-In . SVG Version: 6.00 Build 0)  -->
<svg version="1.1" id="Layer_1" xmlns="http://www.w3.org/2000/svg" xmlns:xlink="http://www.w3.org/1999/xlink" x="0px" y="0px"
	 viewBox="0 0 612 792" style="enable-background:new 0 0 612 792;" xml:space="preserve">
<style type="text/css">
	.st0{fill:none;}
	.st1{fill:none;stroke:#000000;stroke-width:2;stroke-linecap:round;stroke-linejoin:round;stroke-miterlimit:10;}
</style>
<g>
	<path class="st0" d="M306.5,688c-96.5,0-193.1,0-289.6,0c-1.7,0-2.1-0.4-2.1-2.1c0-193.1,0-386.1,0-579.2c0-1.7,0.4-2.1,2.1-2.1
		c193,0,386.1,0,579.2,0c1.7,0,2.1,0.4,2.1,2.1c0,193,0,386.1,0,579.2c0,1.7-0.4,2.1-2.1,2.1C499.5,688,403,688,306.5,688z"/>
	<path d="M231.4,582.7c0,2.6,1.8,3.9,3.3,5.2c1.9,1.6,3.1,3.5,3.1,6c0.1,3-1.7,4.2-4.3,2.7c-2.9-1.7-5.7-3.6-8.5-5.4
		c-2.4-1.5-4.8-2.6-7.7-2.9c-3.2-0.3-6.1-1.8-8.5-3.7c-2.3-1.9-4.7-2.6-7.6-2.3c-2.3,0.3-4.6-0.2-6.9-0.9c-4.5-1.5-6.3-4.9-4.9-9.5
		c1.5-5.2,5.3-7.9,10.7-7.8c4.1,0.1,8,0.9,12.1,1.4c4,0.5,7.2-0.3,10-3.5c13.5-15.4,26.1-31.5,37.6-48.5c5.6-8.3,7.7-17.6,8.5-27.3
		c1.9-21.9-2.1-42.9-10-63.3c-3.5-9-6.3-18.3-9.2-27.4c-0.6-1.7-1.2-2-2.8-1.5c-7.1,2.2-14.1,4.6-20.7,7.9c-2.5,1.3-4.9,2.7-7,4.4
		c-2,1.6-3.4,3.5-4,6c-3.4,12.4-6.2,25-7.7,37.8c-0.8,7.3,0.9,14.1,2.7,21c2.5,9.7,4.1,19.5,3,29.6c-0.7,6.4-2.5,12.3-6.3,17.6
		c-7.6,10.7-16.3,20.4-25.7,29.4c-0.7,0.7-1.4,1.3-2.2,2.1c3.6,2.3,7,4.4,9.9,7.4c0.9,1,1.9,2,2.3,3.3c0.4,1.2,0.4,2.4-0.6,3.3
		c-1,0.9-2.1,0.5-3.1-0.1c-1.2-0.7-2.4-1.5-3.5-2.4c-1.9-1.4-3.8-2.9-6-4c-0.8-0.4-1.9-1.2-2.7-0.5c-0.9,0.9-0.1,2,0.3,2.9
		c0.9,2,2.1,3.8,3.8,5.3c1.6,1.4,2.4,3.2,2.5,5.3c0.1,1.9-0.9,2.6-2.7,2.4c-2.4-0.3-4.3-1.6-6-3.2c-1.7-1.7-3.2-3.6-4.3-5.7
		c-0.9-1.7-2.2-1.3-3.5-1.1c-1.4,0.2-1.9,1.4-1.8,2.7c0.2,2.3,1.3,4.3,2.7,6.1c0.9,1.1,1.8,2.2,2.7,3.3c0.7,0.9,1.3,1.9,1.4,3
		c0.1,1.7-0.2,3.4-1.7,4.3c-1.5,0.9-2.7-0.2-3.8-1.1c-2.9-2.6-4.8-5.8-6-9.4c-2-6.1-6.4-8.3-12.3-8.6c-2.5-0.1-5.1-0.2-7.6-0.5
		c-6-0.6-10.7-6.7-9.7-12.6c0.5-3.3,2.6-5.3,5.7-6.3c5.9-1.8,11.6-0.7,17.2,1.1c2.3,0.8,4.6,1.7,6.9,2.6c4.7,1.8,7.1,1.1,10.2-2.8
		c5.7-7.3,10.8-14.9,15.2-23.1c4.2-8,5.2-16.2,3.5-25c-1.8-9.1-3.7-18.2-4.9-27.4c-0.9-6.7,0.8-12.8,2.6-18.9
		c2.2-7.4,4.6-14.7,5.8-22.4c0.6-3.9-0.2-7.5-1.8-10.9c-1.4-3.1-3.9-3.2-5.8-0.3c-5.2,8.2-9.9,16.8-14.6,25.3
		c-31.6,57.2-62.5,114.7-93,172.5c-0.1,0.3-0.3,0.5-0.4,0.8c-1.8,3.7-4.3,5-8.4,4.5c-3.1-0.4-4.9-2.1-5.1-5.3
		c-0.2-3,0.5-5.8,1.4-8.6c3.3-9.6,8.6-18.1,13.6-26.8c17.6-30.6,36.2-60.6,54.3-90.9c12.1-20.3,24.5-40.5,35.5-61.5
		c1.2-2.3,2.1-4.6,3.3-6.9c1-2,0.4-3.4-1.2-4.7c-3-2.5-6.7-3.6-10.4-4.5c-6-1.5-12.2-1.1-18.3-2.2c-23.9-4.2-46.7-11.5-67.8-24
		c-21.9-13-36-31.9-44-55.7c-3.9-11.5-6-23.2-5.1-35.3c1.1-14.8,6.6-28,15-40.1c10.3-14.9,23.7-26.6,38.2-37.1
		c24.5-17.7,51.4-30.3,81-37c26.7-6,53.6-6.7,80.6-1.6c13.8,2.6,33.4,17.7,33.7,40.1c0.1,8.2-2.5,15.8-5.7,23.2
		c-11.9,27.5-29.2,50.8-53.4,68.8c-15.6,11.5-33,18.3-52.3,20.6c-10.8,1.3-21.6,2.8-32.5,2.6c-10.4-0.3-20.4-1.9-29.3-7.9
		c-7-4.7-11.9-11.2-15.8-18.4c-5-9.2-8.7-18.9-11.2-29c-3-12.1,0.5-23,7.1-33.1c9.5-14.4,22.9-24.4,37.8-32.4
		c16.7-8.9,34.5-14.5,53.4-16.1c15.7-1.3,31,0.3,45.3,7.5c9.6,4.9,14,12.8,13.3,23.6c-0.8,12.8-5.8,24.1-12.5,34.7
		c-10.5,16.7-24,30.5-41.4,40c-8.6,4.7-17.7,7.7-27.5,8.3c-5,0.3-9.7-0.6-14.2-2.7c-11.9-5.7-22-13.7-29.1-25
		c-9.2-14.6-8.6-29.4,2.4-42.7c11.9-14.5,27-24.5,45.7-27.9c17.5-3.1,32.5,2.2,44.9,15c5.9,6.2,8,13.3,5.4,21.5
		c-6,18.7-17.6,32.3-37.2,37c-11.7,2.8-23.5,1-34.4-4.3c-8.4-4.1-11.6-12.2-8.8-21.7c2.9-9.6,8.6-17.2,16.5-23.2
		c3.2-2.4,7.1-3.1,11-3.7c6.2-1,12.4-1.1,18.5,0.7c8,2.3,11.3,7.9,9.8,16.1c-2.3,12.3-12,20-24.3,19.4c-0.9,0-1.8-0.2-2.7-0.4
		c-9.2-2.2-9.7-9.3-5.7-15.9c2.1-3.4,6.8-2.9,10,0.7c0.9,1,1.7,2.1,2.8,2.9c2.1,1.5,4.2,1.5,6.2-0.1c2.1-1.8,3.3-4.2,4.4-6.7
		c0.2-0.6,0.1-1-0.2-1.5c-3.6-7.5-9.7-12-18.8-8.3c-4.6,1.8-8.5,4.7-12,8.1c-0.3,0.3-0.6,0.7-0.7,1.1c-1.5,5.4-2.6,10.8-1.5,16.4
		c1.2,6.6,5.2,10.3,11.7,11.3c7.6,1.1,15.4,0.2,21.9-3.4c8.6-4.8,16-11.5,20.3-20.8c3.2-6.9,1.5-13.5-4.5-19
		c-4.1-3.7-8.9-6.3-14.2-8c-3.1-1-6.4-0.1-9.6,0.1c-10.7,0.7-21.1,2.4-30.9,7.2c-10.9,5.3-18.5,13.3-19.6,25.8
		c-2.1,23.9,13.2,39.6,36.6,37.9c19.3-1.4,35.4-10.3,50-22.5c4.8-4,8.9-8.6,12.7-13.6c8.5-11.1,8.9-22.7,2.3-34.9
		c-6.6-12.3-17-19-30.6-21.1c-15.8-2.4-30.8,1-45.6,6.1c-8.6,3-16.9,6.4-24.2,12.1c-13.3,10.5-19.9,24.4-21.3,41
		c-0.2,2.1-0.1,4.2-0.2,6.3c-0.4,8.7,4.3,15.6,8.4,22.6c5.6,9.6,13,17.6,23,22.9c11.6,6.1,23.9,6.9,36.5,4.3
		c17.6-3.6,32.7-12.4,47.5-22.2c11.4-7.6,19.4-17.8,25.3-30c6-12.4,11-25.1,13.2-38.8c0.9-5.6,1.2-11.3,0.3-17
		c-1.9-12-9.3-19.5-21.3-21.3c-15.6-2.3-31.2-2.1-46.8-0.1c-25.9,3.3-50.4,10.9-73.7,22.6c-6.6,3.3-12.9,7.2-19.1,11.3
		c-8.8,5.9-15,14.1-20.7,22.8c-7.7,11.9-13.5,24.5-15.7,38.6c-2.1,13.6,0,26.7,5.3,39.3c3.1,7.3,8.9,12.1,16.1,15.3
		c7.7,3.4,15.8,6.3,23.2,10.2c15.8,8.3,32.9,12.2,50.1,15.9c7.9,1.7,15.8,3.7,23,7.4c5.8,3,10.5,7.1,13.8,12.8
		c2.2,3.8,4.7,7.5,8,10.6c1.3,1.2,2.7,2.3,4.4,3c1.5,0.6,3.2,0.7,4.5-0.3c5.6-4.2,11.9-7.2,17.9-10.7c24.5-14.4,49.1-28.6,74.3-41.6
		c19-9.8,38.1-19.2,58.4-26c5.6-1.9,11.3-3.5,17.2-4.2c10.9-1.3,21,1.8,30.3,7.1c18,10.3,31.1,25.4,41.3,43.2c0.6,1.1,1,2.4,1.5,3.5
		c1.4,2.7,3.8,2.9,5.8,0.6c2.6-2.9,2.8-6.3,0.6-9.5c-1.9-2.9-4.6-4.9-7.4-6.8c-2.9-2-5.4-4.4-7.1-7.4c-1.8-3.1-1.1-5,2.2-6.4
		c3.6-1.6,7.5-1.5,11.3-1.2c1.1,0.1,1.7-0.1,2.4-1.1c7.7-12.1,18.7-18.2,33.1-18c9.6,0.1,19,1.4,27.7,5.6
		c11.3,5.5,17.2,14.7,18.7,27c0.1,0.5,0.2,1,0.1,1.6c-0.1,1.7,0.7,2,2.2,1.9c2.6-0.2,5.2,0,7.8,0.9c3.9,1.3,5.9,6.6,2.8,9.2
		c-2.1,1.8-2.3,3.9-3.4,5.9c-0.9,1.7-2.2,2.7-4.1,3.1c-2.6,0.5-5.2,0.2-8.1,0.4c0.6,1.6,1.8,2.5,3.1,3.2
		c11.5,5.6,21.2,13.9,31.2,21.5c6,4.5,11.5,9.6,17.2,14.4c8.5,7.1,12.9,16.5,15.9,26.8c5.5,19.2-0.5,35.4-13.3,49.7
		c-9.5,10.6-19.8,20.5-29.7,30.8c-6.1,6.4-11.8,13.2-14.9,21.7c-1.1,3-1.6,6.1-2.8,9c-1.1,2.4-2.4,4.7-4.3,6.5
		c-1,0.9-2.1,1.7-3.3,2.2c-4,1.7-7.2-0.5-7-4.8c0.1-2.5,0.6-5.1,0.8-7.6c0.1-1.2,0.2-2.4,0.2-3.6c0-1,0.2-2.3-1-2.8
		c-1.1-0.5-2.1,0.5-2.7,1.2c-5.5,6.5-13.2,7.5-20.9,8.5c-5.3,0.7-10.6,0.8-15.9-0.4c-1.4-0.3-3.2-0.4-3.4-2.1
		c-0.3-1.8,1.5-2.4,2.8-3.1c5.2-2.6,10.9-3.3,16.4-4.3c3.2-0.6,6.3-1.2,9.5-1.8c1.2-0.3,2.5-0.6,3.3-1.7c1.7-2.4,0.5-5-2.4-5.5
		c-4.1-0.6-8,0.6-12,1.1c-8.5,1-17.1,0.9-25.5-1.1c-2-0.5-3.9-1.1-5.5-2.4c-1.8-1.5-1.7-2.6,0.4-3.6c3.9-1.8,8.1-2,12.3-1.8
		c6.6,0.3,13.1,1.2,19.8,1c2-0.1,4-0.2,6-0.9c0.8-0.3,1.7-0.6,1.6-1.6c0-1.1-1.1-1.2-1.8-1.3c-5.9-1.2-11.9-1.2-17.9-1.5
		c-6.3-0.3-12.6-0.3-18.9-0.9c-1.3-0.1-2.8-0.1-3.1-1.9c-0.3-1.7,0.8-2.7,2-3.4c1.4-0.8,2.9-1.3,4.5-1.4c7.4-0.1,14.8-1.1,22.2-1
		c7.1,0.1,13.8,1.8,20.2,4.7c0.7,0.3,1.5,1.1,2,0.5c0.7-0.7,0.4-1.8-0.1-2.7c-1.3-2.5-3.6-3.8-6.1-4.7c-5.5-1.9-11.3-2.5-17-3
		c-6.9-0.6-13.8-1-20.7-0.2c-2,0.2-4,0.6-5.7,1.7c-1.3-4.1,0.3-7.2,4.8-8.7c6.9-2.4,14-4,21.2-4.5c6.8-0.5,13.5,0.2,19.8,3.1
		c4.6,2.1,8.3,5.4,11.1,9.6c0.6,0.9,0.8,1.9,1,2.9c1.2,6.6,5.5,9,11.4,5.9c10.1-5.2,19.9-10.9,27.9-19.1c8.7-9,12.4-19.2,9.5-31.8
		c-3.8-16.4-9-32.2-17.8-46.6c-7.1-11.7-15.9-21.6-28.5-27.6c-4.6-2.2-8.8-0.5-10.5,4.3c-0.4,1.3-1.3,2.2-2.4,2.9
		c-1.1,0.7-2.3,1.4-3.6,1.9c-3.9,1.5-7.9,2.6-11,5.7c-1.1,1.1-2.8,1.6-4.4,1.5c-3.3-0.3-6.4,0.3-9.6,0.9c-7.1,1.4-13.3-0.7-19-4.9
		c-2.5-1.9-4.9-3.9-7-6.3c-0.8-0.9-1.5-1.2-2.7-0.8c-17.2,6.8-33.9,14.6-48.5,26c-14.7,11.4-26.9,25.2-37,40.7
		c-0.9,1.4-0.7,2.3,0,3.7c9,16.8,18.1,33.5,26.2,50.7c1.1,2.2,2,4.5,2.7,6.9c0.7,2.2,1.7,4.3,3.2,6.1c1.1,1.3,2,2.8,2.5,4.5
		c0.6,2,2,2.9,4,3.1c5.6,0.6,10.8-1,16.1-2.4c1.6-0.4,3.1-1.1,4.6-1.7c3.8-1.5,7.6-2.7,11.8-1.8c2,0.5,4.2,0.2,6.3,0.1
		c2.1-0.1,2.9,1,2,3c-0.7,1.6-2,2.5-3.6,2.8c-6,1.1-11.7,3.3-17.2,5.8c-3.9,1.8-7.9,2.7-12.2,2.8c-1,0-2.6-0.1-2.7,0.9
		c-0.1,1.3,1.5,1.4,2.5,1.6c4.5,0.9,9.1,0.8,13.6,0c6.5-1.1,12.9-2.7,19-5.3c3.1-1.3,6-2.7,8.5-5c1.4-1.3,2.9-1.8,4.7-0.9
		c1.7,0.9,2.2,3.1,0.8,4.3c-5.9,5.2-12,10.1-19.6,12.9c-4.2,1.5-8.5,2.1-13,1.9c-4.3-0.3-8.5-0.2-12.7,0.8c-1.7,0.4-3.3,0.9-4.7,2
		c-0.6,0.5-1.1,1.1-1,1.9c0.2,0.9,0.9,1.2,1.7,1.3c1.7,0.2,3.4,0.5,5.1,0.5c11.5,0.1,23.1-0.4,34.6-1.6c2.4-0.2,4.6,0,6.8,1
		c1.1,0.5,2.3,1.1,2.2,2.6c-0.1,1.4-1.3,1.9-2.5,2.2c-2.7,0.8-5.5,1-8.2,1.1c-12.8,0.5-25.6,0.6-38.4-1.2c-1.4-0.2-2.8-0.6-4.1-1
		c-1.1-0.3-2.2-0.5-3.3-0.3c-1.1,0.2-2,0.6-2.4,1.7c-0.4,1.2,0.1,2.1,1,2.8c2.3,1.7,4.7,3.2,7,4.8c2.2,1.5,4.4,2.9,6.3,4.7
		c1.5,1.4,1.4,2.9,0.2,4.3c-1.8,2.3-4.8,3.1-7.2,1.5c-7.5-4.8-13.9-10.7-18.8-18.1c-1.3-1.9-0.9-4.2-0.7-6.4
		c0.3-3.6,0.8-7.1,1.2-10.7c0.3-2.1-0.2-4-1.4-5.8c-4.5-7.1-8.9-14.2-13.5-21.3c-6.4-10-10.2-21.2-15-31.9c-4-9-7.9-18-12.5-26.6
		c-1.5-2.8-1-5.5,0.1-8.2c1.8-4.5,4.8-8.2,7.5-12.2c10.6-16.1,24.8-27.8,42.1-36.2c11.8-5.7,23.5-11.6,35-18
		c1.4-0.8,2.8-1.7,4.2-2.6c2-1.4,2.1-2,0.4-3.6c-2.9-2.8-5.8-5.4-8.8-8.1c-3-2.8-5.5-6.1-8.1-9.3c-12.9-15.9-28.9-26.6-49.6-29.3
		c-10.5-1.3-20.3,1.6-29.7,6.3c-19.6,9.8-39.3,19.6-58.7,29.9c-4.7,2.5-6.3,6.8-4,11.7c4.1,8.8,7.7,17.9,11.2,27
		c5.1,13.6,9.4,27.4,13.1,41.5c4.8,18.2,2.2,35.1-6.3,51.5c-8.5,16.5-19.8,31-32.4,44.6c-5,5.4-10.2,10.5-15.7,15.5
		c-1.1,1-1.9,2-1.5,3.5c0.4,1.5,1.8,1.3,3,1.5c2.4,0.4,4.7,0.9,6.9,1.9c1.1,0.5,2.2,1,3,2c0.7,0.9,0.7,1.9,0.1,2.9
		c-0.6,1-1.4,0.8-2.3,0.6c-3.6-0.8-7.2-1.6-10.9-1.8c-0.8,0-1.6-0.2-2.4,0.5c2.7,0.8,5.3,1.4,7.8,2.2c2.9,1,3.1,2.1,0.7,4.1
		c-3.2,2.8-5.7,3.1-9.7,1C234.3,584.6,232.9,583.7,231.4,582.7z"/>
	<path class="st1" d="M534.2,365c0.5,0.8,0.5,1.6,0.4,2.5"/>
	<path class="st1" d="M166.9,578.2c0.5,0,1.1-0.1,1.6-0.1"/>
</g>
</svg>
